<mxfile host="app.diagrams.net" agent="Mozilla/5.0 (Windows NT 10.0; Win64; x64) AppleWebKit/537.36 (KHTML, like Gecko) Chrome/135.0.0.0 Safari/537.36" version="26.2.6">
  <diagram id="R2lEEEUBdFMjLlhIrx00" name="Page-1">
    <mxGraphModel dx="1282" dy="769" grid="1" gridSize="10" guides="1" tooltips="1" connect="1" arrows="1" fold="1" page="1" pageScale="1" pageWidth="850" pageHeight="1100" math="0" shadow="0" extFonts="Permanent Marker^https://fonts.googleapis.com/css?family=Permanent+Marker">
      <root>
        <mxCell id="0" />
        <mxCell id="1" parent="0" />
        <mxCell id="jwHc53lMBmDGHj068Qxe-1" value="Experienced" style="whiteSpace=wrap;html=1;align=center;fontFamily=Kahroba RG;fontSize=13;fontStyle=1" parent="1" vertex="1">
          <mxGeometry x="160" y="280" width="120" height="40" as="geometry" />
        </mxCell>
        <mxCell id="jwHc53lMBmDGHj068Qxe-2" value="Inexperienced" style="whiteSpace=wrap;html=1;align=center;fontFamily=Kahroba RG;fontSize=13;fontStyle=1" parent="1" vertex="1">
          <mxGeometry y="280" width="120" height="40" as="geometry" />
        </mxCell>
        <mxCell id="jwHc53lMBmDGHj068Qxe-3" value="Person" style="whiteSpace=wrap;html=1;align=center;fontFamily=Kahroba RG;fontSize=13;fontStyle=1" parent="1" vertex="1">
          <mxGeometry x="80" y="120" width="120" height="40" as="geometry" />
        </mxCell>
        <mxCell id="jwHc53lMBmDGHj068Qxe-4" value="Employer" style="whiteSpace=wrap;html=1;align=center;fontFamily=Kahroba RG;fontSize=13;fontStyle=1" parent="1" vertex="1">
          <mxGeometry x="600" y="120" width="120" height="40" as="geometry" />
        </mxCell>
        <mxCell id="jwHc53lMBmDGHj068Qxe-6" value="Government_Employer" style="whiteSpace=wrap;html=1;align=center;fontFamily=Kahroba RG;fontSize=13;fontStyle=1" parent="1" vertex="1">
          <mxGeometry x="680" y="280" width="160" height="40" as="geometry" />
        </mxCell>
        <mxCell id="jwHc53lMBmDGHj068Qxe-8" value="d" style="ellipse;whiteSpace=wrap;html=1;align=center;fontFamily=Kahroba RG;fontSize=13;fontStyle=1" parent="1" vertex="1">
          <mxGeometry x="120" y="200" width="40" height="40" as="geometry" />
        </mxCell>
        <mxCell id="jwHc53lMBmDGHj068Qxe-9" value="o" style="ellipse;whiteSpace=wrap;html=1;align=center;fontFamily=Kahroba RG;fontSize=13;fontStyle=1" parent="1" vertex="1">
          <mxGeometry x="640" y="200" width="40" height="40" as="geometry" />
        </mxCell>
        <mxCell id="jwHc53lMBmDGHj068Qxe-21" value="" style="shape=link;html=1;rounded=0;exitX=0.5;exitY=1;exitDx=0;exitDy=0;entryX=0.5;entryY=0;entryDx=0;entryDy=0;fontStyle=1;fontFamily=Kahroba RG;fontSize=13;" parent="1" source="jwHc53lMBmDGHj068Qxe-3" target="jwHc53lMBmDGHj068Qxe-8" edge="1">
          <mxGeometry relative="1" as="geometry">
            <mxPoint x="180" y="240" as="sourcePoint" />
            <mxPoint x="340" y="240" as="targetPoint" />
          </mxGeometry>
        </mxCell>
        <mxCell id="jwHc53lMBmDGHj068Qxe-22" value="" style="resizable=0;html=1;whiteSpace=wrap;align=right;verticalAlign=bottom;fontStyle=1;fontFamily=Kahroba RG;fontSize=13;" parent="jwHc53lMBmDGHj068Qxe-21" connectable="0" vertex="1">
          <mxGeometry x="1" relative="1" as="geometry" />
        </mxCell>
        <mxCell id="jwHc53lMBmDGHj068Qxe-23" value="" style="endArrow=none;html=1;rounded=0;exitX=0;exitY=1;exitDx=0;exitDy=0;entryX=0.5;entryY=0;entryDx=0;entryDy=0;fontStyle=1;fontFamily=Kahroba RG;fontSize=13;" parent="1" source="jwHc53lMBmDGHj068Qxe-8" target="jwHc53lMBmDGHj068Qxe-2" edge="1">
          <mxGeometry relative="1" as="geometry">
            <mxPoint x="110" y="220" as="sourcePoint" />
            <mxPoint x="270" y="220" as="targetPoint" />
          </mxGeometry>
        </mxCell>
        <mxCell id="jwHc53lMBmDGHj068Qxe-24" value="" style="endArrow=none;html=1;rounded=0;exitX=1;exitY=1;exitDx=0;exitDy=0;entryX=0.5;entryY=0;entryDx=0;entryDy=0;fontStyle=1;fontFamily=Kahroba RG;fontSize=13;" parent="1" source="jwHc53lMBmDGHj068Qxe-8" target="jwHc53lMBmDGHj068Qxe-1" edge="1">
          <mxGeometry relative="1" as="geometry">
            <mxPoint x="136" y="244" as="sourcePoint" />
            <mxPoint x="70" y="290" as="targetPoint" />
          </mxGeometry>
        </mxCell>
        <mxCell id="jwHc53lMBmDGHj068Qxe-25" value="" style="endArrow=none;html=1;rounded=0;exitX=0;exitY=1;exitDx=0;exitDy=0;entryX=0.5;entryY=0;entryDx=0;entryDy=0;fontStyle=1;fontFamily=Kahroba RG;fontSize=13;" parent="1" source="jwHc53lMBmDGHj068Qxe-9" edge="1">
          <mxGeometry relative="1" as="geometry">
            <mxPoint x="324" y="244" as="sourcePoint" />
            <mxPoint x="560" y="280" as="targetPoint" />
          </mxGeometry>
        </mxCell>
        <mxCell id="jwHc53lMBmDGHj068Qxe-26" value="" style="endArrow=none;html=1;rounded=0;exitX=1;exitY=1;exitDx=0;exitDy=0;entryX=0.5;entryY=0;entryDx=0;entryDy=0;fontStyle=1;fontFamily=Kahroba RG;fontSize=13;" parent="1" source="jwHc53lMBmDGHj068Qxe-9" target="jwHc53lMBmDGHj068Qxe-6" edge="1">
          <mxGeometry relative="1" as="geometry">
            <mxPoint x="656" y="244" as="sourcePoint" />
            <mxPoint x="570" y="290" as="targetPoint" />
          </mxGeometry>
        </mxCell>
        <mxCell id="jwHc53lMBmDGHj068Qxe-27" value="" style="endArrow=none;html=1;rounded=0;exitX=0.5;exitY=1;exitDx=0;exitDy=0;entryX=0.5;entryY=0;entryDx=0;entryDy=0;fontStyle=1;fontFamily=Kahroba RG;fontSize=13;" parent="1" source="jwHc53lMBmDGHj068Qxe-4" target="jwHc53lMBmDGHj068Qxe-9" edge="1">
          <mxGeometry relative="1" as="geometry">
            <mxPoint x="684" y="244" as="sourcePoint" />
            <mxPoint x="770" y="290" as="targetPoint" />
          </mxGeometry>
        </mxCell>
        <mxCell id="jwHc53lMBmDGHj068Qxe-31" value="&lt;span&gt;Experience&lt;/span&gt;" style="shape=ext;margin=3;double=1;whiteSpace=wrap;html=1;align=center;fontStyle=1;fontFamily=Kahroba RG;fontSize=13;" parent="1" vertex="1">
          <mxGeometry x="170" y="520" width="100" height="40" as="geometry" />
        </mxCell>
        <mxCell id="jwHc53lMBmDGHj068Qxe-32" value="has" style="shape=rhombus;double=1;perimeter=rhombusPerimeter;whiteSpace=wrap;html=1;align=center;fontStyle=1;fontFamily=Kahroba RG;fontSize=13;" parent="1" vertex="1">
          <mxGeometry x="160" y="400" width="120" height="60" as="geometry" />
        </mxCell>
        <mxCell id="jwHc53lMBmDGHj068Qxe-33" value="ID" style="ellipse;whiteSpace=wrap;html=1;align=center;fontStyle=5;fontFamily=Kahroba RG;fontSize=13;" parent="1" vertex="1">
          <mxGeometry x="147.5" y="50" width="50" height="40" as="geometry" />
        </mxCell>
        <mxCell id="jwHc53lMBmDGHj068Qxe-34" value="Name" style="ellipse;whiteSpace=wrap;html=1;align=center;fontStyle=1;fontFamily=Kahroba RG;fontSize=13;" parent="1" vertex="1">
          <mxGeometry x="82.5" y="50" width="50" height="40" as="geometry" />
        </mxCell>
        <mxCell id="jwHc53lMBmDGHj068Qxe-38" value="Hiring_proccess" style="shape=ext;margin=3;double=1;whiteSpace=wrap;html=1;align=center;fontStyle=1;fontFamily=Kahroba RG;fontSize=13;" parent="1" vertex="1">
          <mxGeometry x="320" y="480" width="160" height="40" as="geometry" />
        </mxCell>
        <mxCell id="jwHc53lMBmDGHj068Qxe-41" value="" style="endArrow=none;html=1;rounded=0;entryX=1;entryY=0.5;entryDx=0;entryDy=0;exitX=0;exitY=0.5;exitDx=0;exitDy=0;fontFamily=Kahroba RG;fontSize=13;" parent="1" source="jwHc53lMBmDGHj068Qxe-4" target="jwHc53lMBmDGHj068Qxe-45" edge="1">
          <mxGeometry relative="1" as="geometry">
            <mxPoint x="330" y="410" as="sourcePoint" />
            <mxPoint x="500" y="140" as="targetPoint" />
          </mxGeometry>
        </mxCell>
        <mxCell id="jwHc53lMBmDGHj068Qxe-42" value="1" style="resizable=0;html=1;whiteSpace=wrap;align=right;verticalAlign=bottom;fontFamily=Kahroba RG;fontSize=13;" parent="jwHc53lMBmDGHj068Qxe-41" connectable="0" vertex="1">
          <mxGeometry x="1" relative="1" as="geometry" />
        </mxCell>
        <mxCell id="jwHc53lMBmDGHj068Qxe-43" value="" style="shape=link;html=1;rounded=0;exitX=0.75;exitY=0;exitDx=0;exitDy=0;entryX=0.5;entryY=1;entryDx=0;entryDy=0;fontFamily=Kahroba RG;fontSize=13;" parent="1" source="jwHc53lMBmDGHj068Qxe-38" target="jwHc53lMBmDGHj068Qxe-45" edge="1">
          <mxGeometry relative="1" as="geometry">
            <mxPoint x="330" y="410" as="sourcePoint" />
            <mxPoint x="410" y="190" as="targetPoint" />
          </mxGeometry>
        </mxCell>
        <mxCell id="jwHc53lMBmDGHj068Qxe-44" value="N" style="resizable=0;html=1;whiteSpace=wrap;align=right;verticalAlign=bottom;fontFamily=Kahroba RG;fontSize=13;" parent="jwHc53lMBmDGHj068Qxe-43" connectable="0" vertex="1">
          <mxGeometry x="1" relative="1" as="geometry">
            <mxPoint x="-10" y="20" as="offset" />
          </mxGeometry>
        </mxCell>
        <mxCell id="jwHc53lMBmDGHj068Qxe-45" value="&lt;span style=&quot;font-weight: 700;&quot;&gt;Conducts&lt;/span&gt;" style="shape=rhombus;double=1;perimeter=rhombusPerimeter;whiteSpace=wrap;html=1;align=center;fontFamily=Kahroba RG;fontSize=13;" parent="1" vertex="1">
          <mxGeometry x="380" y="110" width="120" height="60" as="geometry" />
        </mxCell>
        <mxCell id="jwHc53lMBmDGHj068Qxe-46" value="" style="endArrow=none;html=1;rounded=0;entryX=0.5;entryY=0;entryDx=0;entryDy=0;exitX=1;exitY=0.5;exitDx=0;exitDy=0;fontFamily=Kahroba RG;fontSize=13;" parent="1" source="jwHc53lMBmDGHj068Qxe-3" target="jwHc53lMBmDGHj068Qxe-50" edge="1">
          <mxGeometry relative="1" as="geometry">
            <mxPoint x="360" y="350" as="sourcePoint" />
            <mxPoint x="360" y="220" as="targetPoint" />
            <Array as="points">
              <mxPoint x="360" y="140" />
            </Array>
          </mxGeometry>
        </mxCell>
        <mxCell id="jwHc53lMBmDGHj068Qxe-47" value="1" style="resizable=0;html=1;whiteSpace=wrap;align=right;verticalAlign=bottom;fontFamily=Kahroba RG;fontSize=13;" parent="jwHc53lMBmDGHj068Qxe-46" connectable="0" vertex="1">
          <mxGeometry x="1" relative="1" as="geometry" />
        </mxCell>
        <mxCell id="jwHc53lMBmDGHj068Qxe-48" value="" style="shape=link;html=1;rounded=0;exitX=0.25;exitY=0;exitDx=0;exitDy=0;entryX=0.5;entryY=1;entryDx=0;entryDy=0;fontFamily=Kahroba RG;fontSize=13;" parent="1" source="jwHc53lMBmDGHj068Qxe-38" target="jwHc53lMBmDGHj068Qxe-50" edge="1">
          <mxGeometry relative="1" as="geometry">
            <mxPoint x="360" y="350" as="sourcePoint" />
            <mxPoint x="360" y="280" as="targetPoint" />
          </mxGeometry>
        </mxCell>
        <mxCell id="jwHc53lMBmDGHj068Qxe-49" value="N" style="resizable=0;html=1;whiteSpace=wrap;align=right;verticalAlign=bottom;fontFamily=Kahroba RG;fontSize=13;" parent="jwHc53lMBmDGHj068Qxe-48" connectable="0" vertex="1">
          <mxGeometry x="1" relative="1" as="geometry">
            <mxPoint x="-10" y="20" as="offset" />
          </mxGeometry>
        </mxCell>
        <mxCell id="jwHc53lMBmDGHj068Qxe-50" value="&lt;font&gt;&lt;b&gt;Participates&lt;/b&gt;&lt;/font&gt;" style="shape=rhombus;double=1;perimeter=rhombusPerimeter;whiteSpace=wrap;html=1;align=center;fontFamily=Kahroba RG;fontSize=13;" parent="1" vertex="1">
          <mxGeometry x="300" y="220" width="120" height="60" as="geometry" />
        </mxCell>
        <mxCell id="jwHc53lMBmDGHj068Qxe-53" value="" style="endArrow=none;html=1;rounded=0;entryX=0;entryY=0.5;entryDx=0;entryDy=0;exitX=1;exitY=0.5;exitDx=0;exitDy=0;fontFamily=Kahroba RG;fontSize=13;" parent="1" source="jwHc53lMBmDGHj068Qxe-38" target="jwHc53lMBmDGHj068Qxe-62" edge="1">
          <mxGeometry relative="1" as="geometry">
            <mxPoint x="310" y="400" as="sourcePoint" />
            <mxPoint x="520" y="500" as="targetPoint" />
            <Array as="points">
              <mxPoint x="530" y="500" />
            </Array>
          </mxGeometry>
        </mxCell>
        <mxCell id="jwHc53lMBmDGHj068Qxe-54" value="1" style="resizable=0;html=1;whiteSpace=wrap;align=right;verticalAlign=bottom;fontFamily=Kahroba RG;fontSize=13;" parent="jwHc53lMBmDGHj068Qxe-53" connectable="0" vertex="1">
          <mxGeometry x="1" relative="1" as="geometry">
            <mxPoint x="10" y="-10" as="offset" />
          </mxGeometry>
        </mxCell>
        <mxCell id="jwHc53lMBmDGHj068Qxe-55" value="&lt;span style=&quot;font-weight: 700;&quot;&gt;Interview&lt;/span&gt;" style="shape=ext;margin=3;double=1;whiteSpace=wrap;html=1;align=center;fontFamily=Kahroba RG;fontSize=13;" parent="1" vertex="1">
          <mxGeometry x="690" y="640" width="100" height="40" as="geometry" />
        </mxCell>
        <mxCell id="jwHc53lMBmDGHj068Qxe-58" value="" style="shape=link;html=1;rounded=0;entryX=1;entryY=0.5;entryDx=0;entryDy=0;exitX=0;exitY=0.5;exitDx=0;exitDy=0;fontFamily=Kahroba RG;fontSize=13;" parent="1" source="jwHc53lMBmDGHj068Qxe-55" edge="1">
          <mxGeometry relative="1" as="geometry">
            <mxPoint x="320" y="600" as="sourcePoint" />
            <mxPoint x="650" y="660" as="targetPoint" />
          </mxGeometry>
        </mxCell>
        <mxCell id="jwHc53lMBmDGHj068Qxe-59" value="N" style="resizable=0;html=1;whiteSpace=wrap;align=right;verticalAlign=bottom;fontFamily=Kahroba RG;fontSize=13;" parent="jwHc53lMBmDGHj068Qxe-58" connectable="0" vertex="1">
          <mxGeometry x="1" relative="1" as="geometry" />
        </mxCell>
        <mxCell id="jwHc53lMBmDGHj068Qxe-60" value="&lt;span style=&quot;font-weight: 700;&quot;&gt;JobOffer&lt;/span&gt;" style="shape=ext;margin=3;double=1;whiteSpace=wrap;html=1;align=center;fontFamily=Kahroba RG;fontSize=13;" parent="1" vertex="1">
          <mxGeometry x="390" y="640" width="100" height="40" as="geometry" />
        </mxCell>
        <mxCell id="jwHc53lMBmDGHj068Qxe-61" value="&lt;span style=&quot;font-weight: 700;&quot;&gt;Offers&lt;/span&gt;" style="shape=rhombus;double=1;perimeter=rhombusPerimeter;whiteSpace=wrap;html=1;align=center;fontFamily=Kahroba RG;fontSize=13;" parent="1" vertex="1">
          <mxGeometry x="380" y="550" width="120" height="60" as="geometry" />
        </mxCell>
        <mxCell id="jwHc53lMBmDGHj068Qxe-62" value="&lt;span style=&quot;font-weight: 700;&quot;&gt;Holding&lt;/span&gt;" style="shape=rhombus;double=1;perimeter=rhombusPerimeter;whiteSpace=wrap;html=1;align=center;fontFamily=Kahroba RG;fontSize=13;" parent="1" vertex="1">
          <mxGeometry x="530" y="630" width="120" height="60" as="geometry" />
        </mxCell>
        <mxCell id="jwHc53lMBmDGHj068Qxe-63" value="" style="shape=link;html=1;rounded=0;entryX=0.5;entryY=1;entryDx=0;entryDy=0;exitX=0.5;exitY=0;exitDx=0;exitDy=0;fontFamily=Kahroba RG;fontSize=13;" parent="1" source="jwHc53lMBmDGHj068Qxe-60" target="jwHc53lMBmDGHj068Qxe-61" edge="1">
          <mxGeometry relative="1" as="geometry">
            <mxPoint x="310" y="480" as="sourcePoint" />
            <mxPoint x="470" y="480" as="targetPoint" />
          </mxGeometry>
        </mxCell>
        <mxCell id="jwHc53lMBmDGHj068Qxe-64" value="N" style="resizable=0;html=1;whiteSpace=wrap;align=right;verticalAlign=bottom;fontFamily=Kahroba RG;fontSize=13;" parent="jwHc53lMBmDGHj068Qxe-63" connectable="0" vertex="1">
          <mxGeometry x="1" relative="1" as="geometry">
            <mxPoint x="-10" y="10" as="offset" />
          </mxGeometry>
        </mxCell>
        <mxCell id="jwHc53lMBmDGHj068Qxe-65" value="" style="endArrow=none;html=1;rounded=0;entryX=0.5;entryY=0;entryDx=0;entryDy=0;exitX=0.75;exitY=1;exitDx=0;exitDy=0;fontFamily=Kahroba RG;fontSize=13;" parent="1" source="jwHc53lMBmDGHj068Qxe-38" target="jwHc53lMBmDGHj068Qxe-61" edge="1">
          <mxGeometry relative="1" as="geometry">
            <mxPoint x="310" y="480" as="sourcePoint" />
            <mxPoint x="470" y="480" as="targetPoint" />
          </mxGeometry>
        </mxCell>
        <mxCell id="jwHc53lMBmDGHj068Qxe-66" value="1" style="resizable=0;html=1;whiteSpace=wrap;align=right;verticalAlign=bottom;fontFamily=Kahroba RG;fontSize=13;" parent="jwHc53lMBmDGHj068Qxe-65" connectable="0" vertex="1">
          <mxGeometry x="1" relative="1" as="geometry" />
        </mxCell>
        <mxCell id="jwHc53lMBmDGHj068Qxe-67" value="" style="endArrow=none;html=1;rounded=0;exitX=0.5;exitY=1;exitDx=0;exitDy=0;entryX=0.5;entryY=0;entryDx=0;entryDy=0;fontFamily=Kahroba RG;fontSize=13;" parent="1" source="jwHc53lMBmDGHj068Qxe-1" target="jwHc53lMBmDGHj068Qxe-32" edge="1">
          <mxGeometry relative="1" as="geometry">
            <mxPoint x="220" y="390" as="sourcePoint" />
            <mxPoint x="380" y="390" as="targetPoint" />
          </mxGeometry>
        </mxCell>
        <mxCell id="jwHc53lMBmDGHj068Qxe-68" value="1" style="resizable=0;html=1;whiteSpace=wrap;align=right;verticalAlign=bottom;fontFamily=Kahroba RG;fontSize=13;" parent="jwHc53lMBmDGHj068Qxe-67" connectable="0" vertex="1">
          <mxGeometry x="1" relative="1" as="geometry" />
        </mxCell>
        <mxCell id="jwHc53lMBmDGHj068Qxe-69" value="" style="shape=link;html=1;rounded=0;exitX=0.5;exitY=0;exitDx=0;exitDy=0;entryX=0.5;entryY=1;entryDx=0;entryDy=0;fontFamily=Kahroba RG;fontSize=13;" parent="1" source="jwHc53lMBmDGHj068Qxe-31" target="jwHc53lMBmDGHj068Qxe-32" edge="1">
          <mxGeometry relative="1" as="geometry">
            <mxPoint x="220" y="390" as="sourcePoint" />
            <mxPoint x="380" y="390" as="targetPoint" />
          </mxGeometry>
        </mxCell>
        <mxCell id="jwHc53lMBmDGHj068Qxe-70" value="N" style="resizable=0;html=1;whiteSpace=wrap;align=right;verticalAlign=bottom;fontFamily=Kahroba RG;fontSize=13;" parent="jwHc53lMBmDGHj068Qxe-69" connectable="0" vertex="1">
          <mxGeometry x="1" relative="1" as="geometry">
            <mxPoint x="20" y="10" as="offset" />
          </mxGeometry>
        </mxCell>
        <mxCell id="jwHc53lMBmDGHj068Qxe-72" value="" style="endArrow=none;html=1;rounded=0;exitX=0.5;exitY=1;exitDx=0;exitDy=0;entryX=0.25;entryY=0;entryDx=0;entryDy=0;fontFamily=Kahroba RG;fontSize=13;" parent="1" source="jwHc53lMBmDGHj068Qxe-34" target="jwHc53lMBmDGHj068Qxe-3" edge="1">
          <mxGeometry relative="1" as="geometry">
            <mxPoint x="310" y="240" as="sourcePoint" />
            <mxPoint x="470" y="240" as="targetPoint" />
          </mxGeometry>
        </mxCell>
        <mxCell id="jwHc53lMBmDGHj068Qxe-73" value="" style="endArrow=none;html=1;rounded=0;exitX=0.5;exitY=1;exitDx=0;exitDy=0;entryX=0.75;entryY=0;entryDx=0;entryDy=0;fontFamily=Kahroba RG;fontSize=13;" parent="1" source="jwHc53lMBmDGHj068Qxe-33" target="jwHc53lMBmDGHj068Qxe-3" edge="1">
          <mxGeometry relative="1" as="geometry">
            <mxPoint x="118" y="100" as="sourcePoint" />
            <mxPoint x="120" y="130" as="targetPoint" />
          </mxGeometry>
        </mxCell>
        <mxCell id="jwHc53lMBmDGHj068Qxe-75" value="ID" style="ellipse;whiteSpace=wrap;html=1;align=center;fontStyle=5;fontFamily=Kahroba RG;fontSize=13;" parent="1" vertex="1">
          <mxGeometry x="667.5" y="50" width="50" height="40" as="geometry" />
        </mxCell>
        <mxCell id="jwHc53lMBmDGHj068Qxe-76" value="Name" style="ellipse;whiteSpace=wrap;html=1;align=center;fontStyle=1;fontFamily=Kahroba RG;fontSize=13;" parent="1" vertex="1">
          <mxGeometry x="602.5" y="50" width="50" height="40" as="geometry" />
        </mxCell>
        <mxCell id="jwHc53lMBmDGHj068Qxe-77" value="" style="endArrow=none;html=1;rounded=0;exitX=0.5;exitY=1;exitDx=0;exitDy=0;entryX=0.25;entryY=0;entryDx=0;entryDy=0;fontFamily=Kahroba RG;fontSize=13;" parent="1" source="jwHc53lMBmDGHj068Qxe-76" edge="1">
          <mxGeometry relative="1" as="geometry">
            <mxPoint x="830" y="240" as="sourcePoint" />
            <mxPoint x="630" y="120" as="targetPoint" />
          </mxGeometry>
        </mxCell>
        <mxCell id="jwHc53lMBmDGHj068Qxe-78" value="" style="endArrow=none;html=1;rounded=0;exitX=0.5;exitY=1;exitDx=0;exitDy=0;entryX=0.75;entryY=0;entryDx=0;entryDy=0;fontFamily=Kahroba RG;fontSize=13;" parent="1" source="jwHc53lMBmDGHj068Qxe-75" edge="1">
          <mxGeometry relative="1" as="geometry">
            <mxPoint x="638" y="100" as="sourcePoint" />
            <mxPoint x="690" y="120" as="targetPoint" />
          </mxGeometry>
        </mxCell>
        <mxCell id="jwHc53lMBmDGHj068Qxe-79" value="Department" style="whiteSpace=wrap;html=1;align=center;fontFamily=Kahroba RG;fontSize=13;fontStyle=1" parent="1" vertex="1">
          <mxGeometry x="510" y="420" width="100" height="40" as="geometry" />
        </mxCell>
        <mxCell id="jwHc53lMBmDGHj068Qxe-80" value="Work_for" style="shape=rhombus;double=1;perimeter=rhombusPerimeter;whiteSpace=wrap;html=1;align=center;fontStyle=1;fontFamily=Kahroba RG;fontSize=13;" parent="1" vertex="1">
          <mxGeometry x="500" y="340" width="120" height="60" as="geometry" />
        </mxCell>
        <mxCell id="jwHc53lMBmDGHj068Qxe-81" value="&lt;span style=&quot;font-weight: 700;&quot;&gt;Private_Employer&lt;/span&gt;" style="shape=ext;margin=3;double=1;whiteSpace=wrap;html=1;align=center;fontFamily=Kahroba RG;fontSize=13;" parent="1" vertex="1">
          <mxGeometry x="480" y="280" width="160" height="40" as="geometry" />
        </mxCell>
        <mxCell id="jwHc53lMBmDGHj068Qxe-84" value="" style="shape=link;html=1;rounded=0;entryX=0.5;entryY=0;entryDx=0;entryDy=0;exitX=0.5;exitY=1;exitDx=0;exitDy=0;fontFamily=Kahroba RG;fontSize=13;" parent="1" source="jwHc53lMBmDGHj068Qxe-81" target="jwHc53lMBmDGHj068Qxe-80" edge="1">
          <mxGeometry relative="1" as="geometry">
            <mxPoint x="310" y="360" as="sourcePoint" />
            <mxPoint x="470" y="360" as="targetPoint" />
          </mxGeometry>
        </mxCell>
        <mxCell id="jwHc53lMBmDGHj068Qxe-85" value="N" style="resizable=0;html=1;whiteSpace=wrap;align=right;verticalAlign=bottom;fontFamily=Kahroba RG;fontSize=13;" parent="jwHc53lMBmDGHj068Qxe-84" connectable="0" vertex="1">
          <mxGeometry x="1" relative="1" as="geometry">
            <mxPoint x="-10" as="offset" />
          </mxGeometry>
        </mxCell>
        <mxCell id="jwHc53lMBmDGHj068Qxe-86" value="" style="endArrow=none;html=1;rounded=0;entryX=0.5;entryY=1;entryDx=0;entryDy=0;exitX=0.5;exitY=0;exitDx=0;exitDy=0;fontFamily=Kahroba RG;fontSize=13;" parent="1" source="jwHc53lMBmDGHj068Qxe-79" target="jwHc53lMBmDGHj068Qxe-80" edge="1">
          <mxGeometry relative="1" as="geometry">
            <mxPoint x="310" y="360" as="sourcePoint" />
            <mxPoint x="470" y="360" as="targetPoint" />
          </mxGeometry>
        </mxCell>
        <mxCell id="jwHc53lMBmDGHj068Qxe-87" value="1" style="resizable=0;html=1;whiteSpace=wrap;align=right;verticalAlign=bottom;fontFamily=Kahroba RG;fontSize=13;" parent="jwHc53lMBmDGHj068Qxe-86" connectable="0" vertex="1">
          <mxGeometry x="1" relative="1" as="geometry">
            <mxPoint x="-10" y="10" as="offset" />
          </mxGeometry>
        </mxCell>
        <mxCell id="jwHc53lMBmDGHj068Qxe-88" value="ID" style="ellipse;whiteSpace=wrap;html=1;align=center;fontStyle=5;fontFamily=Kahroba RG;fontSize=13;" parent="1" vertex="1">
          <mxGeometry x="602.5" y="480" width="50" height="40" as="geometry" />
        </mxCell>
        <mxCell id="jwHc53lMBmDGHj068Qxe-89" value="Name" style="ellipse;whiteSpace=wrap;html=1;align=center;fontStyle=1;fontFamily=Kahroba RG;fontSize=13;" parent="1" vertex="1">
          <mxGeometry x="537.5" y="480" width="50" height="40" as="geometry" />
        </mxCell>
        <mxCell id="jwHc53lMBmDGHj068Qxe-90" value="" style="endArrow=none;html=1;rounded=0;exitX=0.5;exitY=0;exitDx=0;exitDy=0;entryX=0.5;entryY=1;entryDx=0;entryDy=0;fontFamily=Kahroba RG;fontSize=13;" parent="1" source="jwHc53lMBmDGHj068Qxe-89" target="jwHc53lMBmDGHj068Qxe-79" edge="1">
          <mxGeometry relative="1" as="geometry">
            <mxPoint x="765" y="670" as="sourcePoint" />
            <mxPoint x="565" y="550" as="targetPoint" />
          </mxGeometry>
        </mxCell>
        <mxCell id="jwHc53lMBmDGHj068Qxe-91" value="" style="endArrow=none;html=1;rounded=0;exitX=0.314;exitY=0.068;exitDx=0;exitDy=0;entryX=0.819;entryY=1.031;entryDx=0;entryDy=0;exitPerimeter=0;entryPerimeter=0;fontFamily=Kahroba RG;fontSize=13;" parent="1" source="jwHc53lMBmDGHj068Qxe-88" target="jwHc53lMBmDGHj068Qxe-79" edge="1">
          <mxGeometry relative="1" as="geometry">
            <mxPoint x="573" y="530" as="sourcePoint" />
            <mxPoint x="625" y="550" as="targetPoint" />
          </mxGeometry>
        </mxCell>
        <mxCell id="jwHc53lMBmDGHj068Qxe-93" value="Year" style="ellipse;whiteSpace=wrap;html=1;align=center;fontStyle=1;fontFamily=Kahroba RG;fontSize=13;" parent="1" vertex="1">
          <mxGeometry x="210" y="610" width="50" height="40" as="geometry" />
        </mxCell>
        <mxCell id="jwHc53lMBmDGHj068Qxe-94" value="" style="endArrow=none;html=1;rounded=0;exitX=0.5;exitY=0;exitDx=0;exitDy=0;entryX=0;entryY=0.5;entryDx=0;entryDy=0;fontFamily=Kahroba RG;fontSize=13;" parent="1" source="jwHc53lMBmDGHj068Qxe-93" edge="1">
          <mxGeometry relative="1" as="geometry">
            <mxPoint x="432.5" y="770" as="sourcePoint" />
            <mxPoint x="270" y="600" as="targetPoint" />
          </mxGeometry>
        </mxCell>
        <mxCell id="jwHc53lMBmDGHj068Qxe-95" value="" style="endArrow=none;html=1;rounded=0;exitX=0.314;exitY=0.068;exitDx=0;exitDy=0;entryX=0.819;entryY=1.031;entryDx=0;entryDy=0;exitPerimeter=0;entryPerimeter=0;fontFamily=Kahroba RG;fontSize=13;" parent="1" edge="1">
          <mxGeometry relative="1" as="geometry">
            <mxPoint x="285.70000000000005" y="582.72" as="sourcePoint" />
            <mxPoint x="259.5" y="561" as="targetPoint" />
          </mxGeometry>
        </mxCell>
        <mxCell id="jwHc53lMBmDGHj068Qxe-96" value="Month" style="ellipse;whiteSpace=wrap;html=1;align=center;fontStyle=1;fontFamily=Kahroba RG;fontSize=13;" parent="1" vertex="1">
          <mxGeometry x="270" y="650" width="50" height="40" as="geometry" />
        </mxCell>
        <mxCell id="jwHc53lMBmDGHj068Qxe-97" value="" style="endArrow=none;html=1;rounded=0;exitX=0.5;exitY=0;exitDx=0;exitDy=0;entryX=0.5;entryY=1;entryDx=0;entryDy=0;fontFamily=Kahroba RG;fontSize=13;" parent="1" source="jwHc53lMBmDGHj068Qxe-96" edge="1">
          <mxGeometry relative="1" as="geometry">
            <mxPoint x="245" y="620" as="sourcePoint" />
            <mxPoint x="295" y="620" as="targetPoint" />
          </mxGeometry>
        </mxCell>
        <mxCell id="jwHc53lMBmDGHj068Qxe-100" value="Salary" style="ellipse;whiteSpace=wrap;html=1;align=center;fontStyle=1;fontFamily=Kahroba RG;fontSize=13;" parent="1" vertex="1">
          <mxGeometry x="132.5" y="580" width="50" height="40" as="geometry" />
        </mxCell>
        <mxCell id="jwHc53lMBmDGHj068Qxe-101" value="" style="endArrow=none;html=1;rounded=0;exitX=1;exitY=0;exitDx=0;exitDy=0;entryX=0.25;entryY=1;entryDx=0;entryDy=0;fontFamily=Kahroba RG;fontSize=13;" parent="1" source="jwHc53lMBmDGHj068Qxe-100" target="jwHc53lMBmDGHj068Qxe-31" edge="1">
          <mxGeometry relative="1" as="geometry">
            <mxPoint x="245" y="620" as="sourcePoint" />
            <mxPoint x="280" y="610" as="targetPoint" />
          </mxGeometry>
        </mxCell>
        <mxCell id="jwHc53lMBmDGHj068Qxe-102" value="Min_salary" style="ellipse;whiteSpace=wrap;html=1;align=center;fontStyle=1;fontFamily=Kahroba RG;fontSize=13;" parent="1" vertex="1">
          <mxGeometry x="7.5" y="370" width="105" height="40" as="geometry" />
        </mxCell>
        <mxCell id="jwHc53lMBmDGHj068Qxe-103" value="" style="endArrow=none;html=1;rounded=0;exitX=0.5;exitY=1;exitDx=0;exitDy=0;entryX=0.5;entryY=0;entryDx=0;entryDy=0;fontFamily=Kahroba RG;fontSize=13;" parent="1" source="jwHc53lMBmDGHj068Qxe-2" target="jwHc53lMBmDGHj068Qxe-102" edge="1">
          <mxGeometry relative="1" as="geometry">
            <mxPoint x="220" y="490" as="sourcePoint" />
            <mxPoint x="380" y="490" as="targetPoint" />
          </mxGeometry>
        </mxCell>
        <mxCell id="jwHc53lMBmDGHj068Qxe-104" value="Hourly_salary" style="ellipse;whiteSpace=wrap;html=1;align=center;fontStyle=1;fontFamily=Kahroba RG;fontSize=13;" parent="1" vertex="1">
          <mxGeometry x="480" y="210" width="110" height="40" as="geometry" />
        </mxCell>
        <mxCell id="jwHc53lMBmDGHj068Qxe-105" value="" style="endArrow=none;html=1;rounded=0;exitX=0.19;exitY=0.034;exitDx=0;exitDy=0;entryX=0.5;entryY=1;entryDx=0;entryDy=0;exitPerimeter=0;fontFamily=Kahroba RG;fontSize=13;" parent="1" source="jwHc53lMBmDGHj068Qxe-81" target="jwHc53lMBmDGHj068Qxe-104" edge="1">
          <mxGeometry relative="1" as="geometry">
            <mxPoint x="628" y="493" as="sourcePoint" />
            <mxPoint x="602" y="471" as="targetPoint" />
          </mxGeometry>
        </mxCell>
        <mxCell id="jwHc53lMBmDGHj068Qxe-106" value="Yearly_salary" style="ellipse;whiteSpace=wrap;html=1;align=center;fontStyle=1;fontFamily=Kahroba RG;fontSize=13;" parent="1" vertex="1">
          <mxGeometry x="717.5" y="200" width="110" height="40" as="geometry" />
        </mxCell>
        <mxCell id="jwHc53lMBmDGHj068Qxe-107" value="" style="endArrow=none;html=1;rounded=0;exitX=0.676;exitY=-0.055;exitDx=0;exitDy=0;entryX=0.5;entryY=1;entryDx=0;entryDy=0;exitPerimeter=0;fontFamily=Kahroba RG;fontSize=13;" parent="1" source="jwHc53lMBmDGHj068Qxe-6" edge="1">
          <mxGeometry relative="1" as="geometry">
            <mxPoint x="765" y="271" as="sourcePoint" />
            <mxPoint x="790" y="240" as="targetPoint" />
          </mxGeometry>
        </mxCell>
        <mxCell id="jwHc53lMBmDGHj068Qxe-108" value="Ministry" style="whiteSpace=wrap;html=1;align=center;fontFamily=Kahroba RG;fontSize=13;fontStyle=1" parent="1" vertex="1">
          <mxGeometry x="710" y="420" width="100" height="40" as="geometry" />
        </mxCell>
        <mxCell id="jwHc53lMBmDGHj068Qxe-109" value="Work_for" style="shape=rhombus;double=1;perimeter=rhombusPerimeter;whiteSpace=wrap;html=1;align=center;fontStyle=1;fontFamily=Kahroba RG;fontSize=13;" parent="1" vertex="1">
          <mxGeometry x="700" y="340" width="120" height="60" as="geometry" />
        </mxCell>
        <mxCell id="jwHc53lMBmDGHj068Qxe-110" value="" style="shape=link;html=1;rounded=0;entryX=0.5;entryY=0;entryDx=0;entryDy=0;exitX=0.5;exitY=1;exitDx=0;exitDy=0;fontFamily=Kahroba RG;fontSize=13;" parent="1" target="jwHc53lMBmDGHj068Qxe-109" edge="1">
          <mxGeometry relative="1" as="geometry">
            <mxPoint x="760" y="320" as="sourcePoint" />
            <mxPoint x="670" y="360" as="targetPoint" />
          </mxGeometry>
        </mxCell>
        <mxCell id="jwHc53lMBmDGHj068Qxe-111" value="N" style="resizable=0;html=1;whiteSpace=wrap;align=right;verticalAlign=bottom;fontFamily=Kahroba RG;fontSize=13;" parent="jwHc53lMBmDGHj068Qxe-110" connectable="0" vertex="1">
          <mxGeometry x="1" relative="1" as="geometry">
            <mxPoint x="-10" as="offset" />
          </mxGeometry>
        </mxCell>
        <mxCell id="jwHc53lMBmDGHj068Qxe-112" value="" style="endArrow=none;html=1;rounded=0;entryX=0.5;entryY=1;entryDx=0;entryDy=0;exitX=0.5;exitY=0;exitDx=0;exitDy=0;fontFamily=Kahroba RG;fontSize=13;" parent="1" source="jwHc53lMBmDGHj068Qxe-108" target="jwHc53lMBmDGHj068Qxe-109" edge="1">
          <mxGeometry relative="1" as="geometry">
            <mxPoint x="510" y="360" as="sourcePoint" />
            <mxPoint x="670" y="360" as="targetPoint" />
          </mxGeometry>
        </mxCell>
        <mxCell id="jwHc53lMBmDGHj068Qxe-113" value="1" style="resizable=0;html=1;whiteSpace=wrap;align=right;verticalAlign=bottom;fontFamily=Kahroba RG;fontSize=13;" parent="jwHc53lMBmDGHj068Qxe-112" connectable="0" vertex="1">
          <mxGeometry x="1" relative="1" as="geometry">
            <mxPoint x="-10" y="10" as="offset" />
          </mxGeometry>
        </mxCell>
        <mxCell id="jwHc53lMBmDGHj068Qxe-114" value="ID" style="ellipse;whiteSpace=wrap;html=1;align=center;fontStyle=5;fontFamily=Kahroba RG;fontSize=13;" parent="1" vertex="1">
          <mxGeometry x="747.5" y="490" width="50" height="40" as="geometry" />
        </mxCell>
        <mxCell id="jwHc53lMBmDGHj068Qxe-115" value="" style="endArrow=none;html=1;rounded=0;exitX=0.314;exitY=0.068;exitDx=0;exitDy=0;entryX=0.819;entryY=1.031;entryDx=0;entryDy=0;exitPerimeter=0;entryPerimeter=0;fontFamily=Kahroba RG;fontSize=13;" parent="1" source="jwHc53lMBmDGHj068Qxe-114" edge="1">
          <mxGeometry relative="1" as="geometry">
            <mxPoint x="740.5" y="529" as="sourcePoint" />
            <mxPoint x="759.5" y="460" as="targetPoint" />
          </mxGeometry>
        </mxCell>
        <mxCell id="jwHc53lMBmDGHj068Qxe-116" value="Year" style="ellipse;whiteSpace=wrap;html=1;align=center;fontStyle=1;fontFamily=Kahroba RG;fontSize=13;" parent="1" vertex="1">
          <mxGeometry x="650" y="740" width="50" height="40" as="geometry" />
        </mxCell>
        <mxCell id="jwHc53lMBmDGHj068Qxe-117" value="" style="endArrow=none;html=1;rounded=0;exitX=0.5;exitY=0;exitDx=0;exitDy=0;entryX=0;entryY=0.5;entryDx=0;entryDy=0;fontFamily=Kahroba RG;fontSize=13;" parent="1" source="jwHc53lMBmDGHj068Qxe-116" edge="1">
          <mxGeometry relative="1" as="geometry">
            <mxPoint x="872.5" y="900" as="sourcePoint" />
            <mxPoint x="710" y="730" as="targetPoint" />
          </mxGeometry>
        </mxCell>
        <mxCell id="jwHc53lMBmDGHj068Qxe-118" value="Month" style="ellipse;whiteSpace=wrap;html=1;align=center;fontStyle=1;fontFamily=Kahroba RG;fontSize=13;" parent="1" vertex="1">
          <mxGeometry x="710" y="780" width="50" height="40" as="geometry" />
        </mxCell>
        <mxCell id="jwHc53lMBmDGHj068Qxe-119" value="" style="endArrow=none;html=1;rounded=0;exitX=0.5;exitY=0;exitDx=0;exitDy=0;entryX=0.5;entryY=1;entryDx=0;entryDy=0;fontFamily=Kahroba RG;fontSize=13;" parent="1" source="jwHc53lMBmDGHj068Qxe-118" edge="1">
          <mxGeometry relative="1" as="geometry">
            <mxPoint x="685" y="750" as="sourcePoint" />
            <mxPoint x="735" y="750" as="targetPoint" />
          </mxGeometry>
        </mxCell>
        <mxCell id="jwHc53lMBmDGHj068Qxe-122" value="" style="endArrow=none;html=1;rounded=0;exitX=0.5;exitY=0;exitDx=0;exitDy=0;entryX=0.819;entryY=1.031;entryDx=0;entryDy=0;entryPerimeter=0;fontFamily=Kahroba RG;fontSize=13;" parent="1" edge="1">
          <mxGeometry relative="1" as="geometry">
            <mxPoint x="740" y="710" as="sourcePoint" />
            <mxPoint x="743.5" y="680" as="targetPoint" />
          </mxGeometry>
        </mxCell>
        <mxCell id="jwHc53lMBmDGHj068Qxe-123" value="Name" style="ellipse;whiteSpace=wrap;html=1;align=center;fontStyle=1;fontFamily=Kahroba RG;fontSize=13;" parent="1" vertex="1">
          <mxGeometry x="690" y="570" width="50" height="40" as="geometry" />
        </mxCell>
        <mxCell id="jwHc53lMBmDGHj068Qxe-124" value="" style="endArrow=none;html=1;rounded=0;exitX=0.5;exitY=1;exitDx=0;exitDy=0;entryX=0.408;entryY=0.037;entryDx=0;entryDy=0;entryPerimeter=0;fontFamily=Kahroba RG;fontSize=13;" parent="1" source="jwHc53lMBmDGHj068Qxe-123" target="jwHc53lMBmDGHj068Qxe-55" edge="1">
          <mxGeometry relative="1" as="geometry">
            <mxPoint x="628" y="493" as="sourcePoint" />
            <mxPoint x="602" y="471" as="targetPoint" />
          </mxGeometry>
        </mxCell>
        <mxCell id="jwHc53lMBmDGHj068Qxe-125" value="Salary" style="ellipse;whiteSpace=wrap;html=1;align=center;fontStyle=1;fontFamily=Kahroba RG;fontSize=13;" parent="1" vertex="1">
          <mxGeometry x="360" y="700" width="50" height="40" as="geometry" />
        </mxCell>
        <mxCell id="jwHc53lMBmDGHj068Qxe-126" value="Time" style="ellipse;whiteSpace=wrap;html=1;align=center;fontStyle=1;fontFamily=Kahroba RG;fontSize=13;" parent="1" vertex="1">
          <mxGeometry x="420" y="700" width="50" height="40" as="geometry" />
        </mxCell>
        <mxCell id="jwHc53lMBmDGHj068Qxe-127" value="Position" style="ellipse;whiteSpace=wrap;html=1;align=center;fontStyle=1;fontFamily=Kahroba RG;fontSize=13;" parent="1" vertex="1">
          <mxGeometry x="480" y="700" width="70" height="40" as="geometry" />
        </mxCell>
        <mxCell id="jwHc53lMBmDGHj068Qxe-128" value="" style="endArrow=none;html=1;rounded=0;exitX=1;exitY=0;exitDx=0;exitDy=0;entryX=0.25;entryY=1;entryDx=0;entryDy=0;fontFamily=Kahroba RG;fontSize=13;" parent="1" source="jwHc53lMBmDGHj068Qxe-125" target="jwHc53lMBmDGHj068Qxe-60" edge="1">
          <mxGeometry relative="1" as="geometry">
            <mxPoint x="305" y="660" as="sourcePoint" />
            <mxPoint x="305" y="630" as="targetPoint" />
          </mxGeometry>
        </mxCell>
        <mxCell id="jwHc53lMBmDGHj068Qxe-129" value="" style="endArrow=none;html=1;rounded=0;exitX=0.5;exitY=0;exitDx=0;exitDy=0;entryX=0.5;entryY=1;entryDx=0;entryDy=0;fontFamily=Kahroba RG;fontSize=13;" parent="1" source="jwHc53lMBmDGHj068Qxe-126" target="jwHc53lMBmDGHj068Qxe-60" edge="1">
          <mxGeometry relative="1" as="geometry">
            <mxPoint x="413" y="716" as="sourcePoint" />
            <mxPoint x="425" y="690" as="targetPoint" />
          </mxGeometry>
        </mxCell>
        <mxCell id="jwHc53lMBmDGHj068Qxe-130" value="" style="endArrow=none;html=1;rounded=0;exitX=0.233;exitY=0.086;exitDx=0;exitDy=0;entryX=0.806;entryY=1.043;entryDx=0;entryDy=0;entryPerimeter=0;exitPerimeter=0;fontFamily=Kahroba RG;fontSize=13;" parent="1" source="jwHc53lMBmDGHj068Qxe-127" target="jwHc53lMBmDGHj068Qxe-60" edge="1">
          <mxGeometry relative="1" as="geometry">
            <mxPoint x="455" y="710" as="sourcePoint" />
            <mxPoint x="450" y="690" as="targetPoint" />
          </mxGeometry>
        </mxCell>
        <mxCell id="-wY5vqb5wHFD_s_YIG_a-1" value="Date" style="ellipse;whiteSpace=wrap;html=1;align=center;fontFamily=Kahroba RG;fontSize=13;fontStyle=1" vertex="1" parent="1">
          <mxGeometry x="260" y="580" width="70" height="40" as="geometry" />
        </mxCell>
        <mxCell id="-wY5vqb5wHFD_s_YIG_a-2" value="Date" style="ellipse;whiteSpace=wrap;html=1;align=center;fontFamily=Kahroba RG;fontSize=13;fontStyle=1" vertex="1" parent="1">
          <mxGeometry x="700" y="710" width="70" height="40" as="geometry" />
        </mxCell>
      </root>
    </mxGraphModel>
  </diagram>
</mxfile>
